<svg width="326" height="326" viewBox="0 0 326 326" fill="none" xmlns="http://www.w3.org/2000/svg">
<g clip-path="url(#clip0_434_4286)">
<rect width="326" height="326" fill="white"/>
<path d="M116.442 0L47.7073 1.76378e-07C21.3593 1.76378e-07 0 20.8507 0 46.5714V279.429C0 305.149 21.3593 326 47.7073 326H120.348C118.461 324.875 116.587 323.688 114.723 322.44C95.5001 309.391 78.2994 289.657 63.1211 263.238L53.9486 247.272C22.8277 193.103 10.7989 146.927 17.8624 108.743C24.9258 70.5598 49.3022 39.2473 90.9916 14.8057C100.206 9.34792 108.689 4.41269 116.442 0Z" fill="url(#paint0_linear_434_4286)"/>
<path d="M234.533 326H278.293C304.641 326 326 305.149 326 279.429V46.5714C326 20.8507 304.641 1.76378e-07 278.293 1.76378e-07H194.168L199.475 4.13233C196.192 12.2456 191.687 19.5477 185.96 26.0387C180.327 32.4747 172.697 39.0558 163.069 45.7819C153.442 52.5081 140.949 60.3904 125.589 69.4288C108.243 79.6195 95.5448 90.2181 87.494 101.225C79.3887 112.136 75.6039 124.533 76.1394 138.413C76.715 152.145 81.1547 168.322 89.4586 186.946L91.3026 185.876C89.9549 169.045 92.8657 153.481 100.035 139.184C107.204 124.888 119.915 112.445 138.166 101.855C157.174 90.8271 176.098 85.3592 194.939 85.4519C213.725 85.4495 231.315 90.8288 247.711 101.59C264.052 112.256 278.201 127.995 290.158 148.808C302.825 170.855 309.456 192.603 310.053 214.052C310.649 235.5 305.333 255.437 294.105 273.862C282.877 292.288 265.868 308.112 243.077 321.335C240.221 322.992 237.373 324.547 234.533 326Z" fill="url(#paint1_linear_434_4286)"/>
<path d="M230.166 250.139C226.854 257.762 221.226 263.878 213.283 268.487C200.895 275.675 188.471 276.547 176.014 271.104C163.556 265.661 152.522 254.576 142.913 237.85C138.054 229.392 134.639 221.363 132.669 213.764C130.698 206.164 130.132 199.143 130.97 192.701C131.754 186.164 133.949 180.329 137.556 175.195C141.109 169.966 145.911 165.596 151.964 162.084C159.907 157.475 167.964 155.588 176.135 156.423C184.252 157.162 192.136 160.571 199.788 166.648C207.535 172.67 214.63 181.288 221.073 192.502C227.515 203.716 231.469 214.22 232.935 224.013C234.4 233.807 233.477 242.515 230.166 250.139Z" fill="url(#paint2_linear_434_4286)"/>
</g>
<defs>
<linearGradient id="paint0_linear_434_4286" x1="163" y1="0" x2="163" y2="326" gradientUnits="userSpaceOnUse">
<stop stop-color="#FF9F0A"/>
<stop offset="1" stop-color="#FFB23A"/>
</linearGradient>
<linearGradient id="paint1_linear_434_4286" x1="163" y1="0" x2="163" y2="326" gradientUnits="userSpaceOnUse">
<stop stop-color="#FF9F0A"/>
<stop offset="1" stop-color="#FFB23A"/>
</linearGradient>
<linearGradient id="paint2_linear_434_4286" x1="163" y1="0" x2="163" y2="326" gradientUnits="userSpaceOnUse">
<stop stop-color="#FF9F0A"/>
<stop offset="1" stop-color="#FFB23A"/>
</linearGradient>
<clipPath id="clip0_434_4286">
<rect width="326" height="326" fill="white"/>
</clipPath>
</defs>
</svg>
